<svg xmlns="http://www.w3.org/2000/svg" xmlns:xlink="http://www.w3.org/1999/xlink" width="500" zoomAndPan="magnify" viewBox="0 0 375 374.999991" height="500" preserveAspectRatio="xMidYMid meet" version="1.0"><defs><g/><clipPath id="a8f8db1e7c"><path d="M 92.457031 37.5 L 282.207031 37.5 L 282.207031 227.25 L 92.457031 227.25 Z M 92.457031 37.5 " clip-rule="nonzero"/></clipPath></defs><g clip-path="url(#a8f8db1e7c)"><path fill="#b22222" d="M 178.515625 176.101562 C 163.242188 166.296875 162.117188 153.808594 162.117188 153.808594 C 162.117188 153.808594 169.769531 168.746094 190.515625 174.214844 C 190.515625 174.214844 208.089844 149.046875 233.128906 160.554688 C 241.476562 164.390625 251.546875 159.664062 249.484375 150.425781 C 242.578125 151.539062 237.09375 150.0625 237.09375 150.0625 C 243.476562 150.296875 248.726562 147.808594 252.738281 144.722656 C 254.074219 141.707031 255.078125 138.25 255.535156 134.324219 C 256.074219 129.714844 242.761719 125.507812 232.289062 122.925781 C 225.59375 121.273438 212.855469 120.175781 212.855469 120.175781 C 224.65625 111.5 232.789062 120.882812 232.789062 120.882812 C 239.867188 107.410156 210.734375 95.304688 193.640625 94.628906 C 193.640625 94.628906 197.273438 80.324219 191.140625 74.652344 C 183.015625 67.132812 160.570312 83.035156 158.984375 105.277344 C 158.984375 105.277344 157.578125 99.0625 158.441406 91.476562 C 158.441406 91.476562 133.144531 86.503906 116.285156 88.160156 C 131.109375 64.425781 157.449219 48.625 187.496094 48.625 C 233.839844 48.625 271.410156 86.195312 271.410156 132.539062 C 271.410156 173.859375 241.464844 207.769531 202.222656 215.164062 C 183.636719 218.667969 165.855469 199.042969 178.515625 176.101562 Z M 187.496094 37.5 C 135.007812 37.5 92.457031 80.050781 92.457031 132.539062 C 92.457031 185.027344 135.007812 227.578125 187.496094 227.578125 C 239.984375 227.578125 282.535156 185.027344 282.535156 132.539062 C 282.535156 80.050781 239.984375 37.5 187.496094 37.5 " fill-opacity="1" fill-rule="nonzero"/></g><g fill="#b22222" fill-opacity="1"><g transform="translate(4.58476, 310.190622)"><g><path d="M 14.421875 0.53125 C 10.265625 0.53125 7.164062 -0.929688 5.125 -3.859375 C 3.09375 -6.785156 2.078125 -11.222656 2.078125 -17.171875 L 2.078125 -41.984375 C 2.078125 -47.304688 3.257812 -51.328125 5.625 -54.046875 C 8 -56.773438 11.535156 -58.140625 16.234375 -58.140625 C 20.023438 -58.140625 22.972656 -57.378906 25.078125 -55.859375 C 27.179688 -54.335938 28.632812 -52.125 29.4375 -49.21875 C 30.238281 -46.3125 30.640625 -42.582031 30.640625 -38.03125 L 19.375 -38.03125 L 19.375 -43.1875 C 19.375 -44.570312 19.179688 -45.644531 18.796875 -46.40625 C 18.421875 -47.164062 17.742188 -47.546875 16.765625 -47.546875 C 14.578125 -47.546875 13.484375 -46.113281 13.484375 -43.25 L 13.484375 -15.359375 C 13.484375 -13.609375 13.707031 -12.285156 14.15625 -11.390625 C 14.601562 -10.503906 15.382812 -10.0625 16.5 -10.0625 C 17.613281 -10.0625 18.394531 -10.503906 18.84375 -11.390625 C 19.289062 -12.285156 19.515625 -13.609375 19.515625 -15.359375 L 19.515625 -23.609375 L 16.4375 -23.609375 L 16.4375 -33.53125 L 30.515625 -33.53125 L 30.515625 0 L 25.890625 0 L 23.9375 -4.828125 C 21.882812 -1.253906 18.710938 0.53125 14.421875 0.53125 Z M 14.421875 0.53125 "/></g></g></g><g fill="#b22222" fill-opacity="1"><g transform="translate(37.112951, 310.190622)"><g><path d="M 2.546875 -57.609375 L 20.25 -57.609375 C 23.070312 -57.609375 25.253906 -56.96875 26.796875 -55.6875 C 28.335938 -54.414062 29.375 -52.628906 29.90625 -50.328125 C 30.445312 -48.023438 30.71875 -45.085938 30.71875 -41.515625 C 30.71875 -38.242188 30.289062 -35.691406 29.4375 -33.859375 C 28.59375 -32.023438 27.117188 -30.753906 25.015625 -30.046875 C 26.753906 -29.679688 28.015625 -28.804688 28.796875 -27.421875 C 29.585938 -26.035156 29.984375 -24.160156 29.984375 -21.796875 L 29.84375 0 L 18.578125 0 L 18.578125 -22.53125 C 18.578125 -24.144531 18.265625 -25.171875 17.640625 -25.609375 C 17.015625 -26.054688 15.875 -26.28125 14.21875 -26.28125 L 14.21875 0 L 2.546875 0 Z M 17.03125 -36.28125 C 18.644531 -36.28125 19.453125 -38.023438 19.453125 -41.515625 C 19.453125 -43.035156 19.382812 -44.175781 19.25 -44.9375 C 19.113281 -45.695312 18.863281 -46.21875 18.5 -46.5 C 18.144531 -46.789062 17.632812 -46.9375 16.96875 -46.9375 L 14.28125 -46.9375 L 14.28125 -36.28125 Z M 17.03125 -36.28125 "/></g></g></g><g fill="#b22222" fill-opacity="1"><g transform="translate(69.104577, 310.190622)"><g><path d="M 2.015625 0 L 2.015625 -57.609375 L 13.140625 -57.609375 L 13.140625 0 Z M 2.015625 0 "/></g></g></g><g fill="#b22222" fill-opacity="1"><g transform="translate(84.329117, 310.190622)"><g><path d="M 1.078125 0 L 1.078125 -10.46875 L 14.21875 -47.015625 L 2.34375 -47.015625 L 2.34375 -57.609375 L 26.421875 -57.609375 L 26.421875 -47.546875 L 12.9375 -10.59375 L 25.8125 -10.59375 L 25.8125 0 Z M 1.078125 0 "/></g></g></g><g fill="#b22222" fill-opacity="1"><g transform="translate(111.82716, 310.190622)"><g><path d="M 1.078125 0 L 1.078125 -10.46875 L 14.21875 -47.015625 L 2.34375 -47.015625 L 2.34375 -57.609375 L 26.421875 -57.609375 L 26.421875 -47.546875 L 12.9375 -10.59375 L 25.8125 -10.59375 L 25.8125 0 Z M 1.078125 0 "/></g></g></g><g fill="#b22222" fill-opacity="1"><g transform="translate(139.325203, 310.190622)"><g><path d="M 2.546875 0 L 2.546875 -57.609375 L 14.078125 -57.609375 L 14.078125 -9.796875 L 25.953125 -9.796875 L 25.953125 0 Z M 2.546875 0 "/></g></g></g><g fill="#b22222" fill-opacity="1"><g transform="translate(165.951362, 310.190622)"><g><path d="M 9.515625 0 L 9.515625 -18.984375 L 0.328125 -57.609375 L 11.734375 -57.609375 L 14.953125 -38.09375 L 18.171875 -57.609375 L 29.578125 -57.609375 L 20.390625 -18.984375 L 20.390625 0 Z M 9.515625 0 "/></g></g></g><g fill="#b22222" fill-opacity="1"><g transform="translate(195.863877, 310.190622)"><g/></g></g><g fill="#b22222" fill-opacity="1"><g transform="translate(211.557893, 310.190622)"><g><path d="M 7.84375 0 L 0.734375 -57.671875 L 11.734375 -57.671875 L 15.953125 -18.4375 L 19.71875 -57.671875 L 30.71875 -57.671875 L 23.609375 0 Z M 7.84375 0 "/></g></g></g><g fill="#b22222" fill-opacity="1"><g transform="translate(243.012975, 310.190622)"><g><path d="M 2.015625 0 L 2.015625 -57.609375 L 13.140625 -57.609375 L 13.140625 0 Z M 2.015625 0 "/></g></g></g><g fill="#b22222" fill-opacity="1"><g transform="translate(258.237514, 310.190622)"><g><path d="M 16.234375 0.53125 C 11.003906 0.53125 7.222656 -0.765625 4.890625 -3.359375 C 2.566406 -5.953125 1.40625 -10.128906 1.40625 -15.890625 L 1.40625 -21.53125 L 12.734375 -21.53125 L 12.734375 -14.34375 C 12.734375 -11.488281 13.648438 -10.0625 15.484375 -10.0625 C 16.515625 -10.0625 17.226562 -10.363281 17.625 -10.96875 C 18.03125 -11.570312 18.234375 -12.585938 18.234375 -14.015625 C 18.234375 -15.890625 18.007812 -17.441406 17.5625 -18.671875 C 17.125 -19.898438 16.554688 -20.925781 15.859375 -21.75 C 15.171875 -22.582031 13.929688 -23.875 12.140625 -25.625 L 7.171875 -30.578125 C 3.328125 -34.335938 1.40625 -38.492188 1.40625 -43.046875 C 1.40625 -47.972656 2.535156 -51.71875 4.796875 -54.28125 C 7.054688 -56.851562 10.351562 -58.140625 14.6875 -58.140625 C 19.875 -58.140625 23.609375 -56.765625 25.890625 -54.015625 C 28.171875 -51.265625 29.3125 -46.960938 29.3125 -41.109375 L 17.578125 -41.109375 L 17.5 -45.0625 C 17.5 -45.820312 17.285156 -46.425781 16.859375 -46.875 C 16.441406 -47.320312 15.851562 -47.546875 15.09375 -47.546875 C 14.195312 -47.546875 13.523438 -47.300781 13.078125 -46.8125 C 12.628906 -46.320312 12.40625 -45.648438 12.40625 -44.796875 C 12.40625 -42.921875 13.476562 -40.976562 15.625 -38.96875 L 22.328125 -32.53125 C 23.890625 -31.007812 25.1875 -29.566406 26.21875 -28.203125 C 27.25 -26.835938 28.078125 -25.226562 28.703125 -23.375 C 29.328125 -21.519531 29.640625 -19.316406 29.640625 -16.765625 C 29.640625 -11.085938 28.597656 -6.785156 26.515625 -3.859375 C 24.441406 -0.929688 21.015625 0.53125 16.234375 0.53125 Z M 16.234375 0.53125 "/></g></g></g><g fill="#b22222" fill-opacity="1"><g transform="translate(289.15605, 310.190622)"><g><path d="M 2.015625 0 L 2.015625 -57.609375 L 13.140625 -57.609375 L 13.140625 0 Z M 2.015625 0 "/></g></g></g><g fill="#b22222" fill-opacity="1"><g transform="translate(304.380589, 310.190622)"><g><path d="M 16.296875 0.53125 C 11.648438 0.53125 8.117188 -0.882812 5.703125 -3.71875 C 3.285156 -6.5625 2.078125 -10.550781 2.078125 -15.6875 L 2.078125 -43.125 C 2.078125 -48.082031 3.285156 -51.820312 5.703125 -54.34375 C 8.117188 -56.875 11.648438 -58.140625 16.296875 -58.140625 C 20.941406 -58.140625 24.472656 -56.875 26.890625 -54.34375 C 29.304688 -51.820312 30.515625 -48.082031 30.515625 -43.125 L 30.515625 -15.6875 C 30.515625 -10.5 29.304688 -6.5 26.890625 -3.6875 C 24.472656 -0.875 20.941406 0.53125 16.296875 0.53125 Z M 16.296875 -10.0625 C 17.328125 -10.0625 18.019531 -10.503906 18.375 -11.390625 C 18.726562 -12.285156 18.90625 -13.539062 18.90625 -15.15625 L 18.90625 -43.328125 C 18.90625 -44.578125 18.738281 -45.59375 18.40625 -46.375 C 18.070312 -47.15625 17.390625 -47.546875 16.359375 -47.546875 C 14.441406 -47.546875 13.484375 -46.09375 13.484375 -43.1875 L 13.484375 -15.09375 C 13.484375 -13.4375 13.679688 -12.179688 14.078125 -11.328125 C 14.484375 -10.484375 15.222656 -10.0625 16.296875 -10.0625 Z M 16.296875 -10.0625 "/></g></g></g><g fill="#b22222" fill-opacity="1"><g transform="translate(336.975847, 310.190622)"><g><path d="M 2.546875 0 L 2.546875 -57.609375 L 14.421875 -57.609375 L 19.71875 -30.046875 L 19.71875 -57.609375 L 30.84375 -57.609375 L 30.84375 0 L 19.578125 0 L 13.8125 -28.84375 L 13.8125 0 Z M 2.546875 0 "/></g></g></g></svg>